<mxfile host="65bd71144e">
    <diagram id="kWI5YO71BJAJT_c5-TrA" name="第 1 页">
        <mxGraphModel dx="1584" dy="912" grid="1" gridSize="10" guides="1" tooltips="1" connect="1" arrows="1" fold="1" page="1" pageScale="1" pageWidth="827" pageHeight="1169" math="0" shadow="0">
            <root>
                <mxCell id="0"/>
                <mxCell id="1" parent="0"/>
                <mxCell id="2" value="&lt;div style=&quot;text-align: left;&quot;&gt;&lt;span style=&quot;font-size: 24px;&quot;&gt;&amp;nbsp; &amp;nbsp; 1、ESModule的解析过程可以划分为三个阶段：&lt;/span&gt;&lt;/div&gt;&lt;div style=&quot;text-align: left;&quot;&gt;&lt;span style=&quot;font-size: 24px;&quot;&gt;&amp;nbsp; &amp;nbsp; 阶段一：构建，根据地址查找JS文件并且下载，将其解析成模块记录。&lt;/span&gt;&lt;/div&gt;&lt;div style=&quot;text-align: left;&quot;&gt;&lt;span style=&quot;font-size: 24px;&quot;&gt;&amp;nbsp; &amp;nbsp; 阶段二：实例化，对模块记录进行实例化，并且分配内存空间，解析模块的导入和导出语句，把模块指向对应的内存地址。&lt;/span&gt;&lt;/div&gt;&lt;div style=&quot;text-align: left;&quot;&gt;&lt;span style=&quot;font-size: 24px;&quot;&gt;&amp;nbsp; &amp;nbsp; 阶段三：运行，运行代码计算值，并且将值填充到内存地址中。&lt;/span&gt;&lt;/div&gt;" style="text;strokeColor=none;align=center;fillColor=none;html=1;verticalAlign=middle;whiteSpace=wrap;rounded=0;fontSize=14;fontColor=#FF3333;labelBackgroundColor=#FFFF00;" parent="1" vertex="1">
                    <mxGeometry x="60" y="120" width="641" height="230" as="geometry"/>
                </mxCell>
                <mxCell id="3" value="&lt;div style=&quot;text-align: left;&quot;&gt;&lt;span style=&quot;font-size: 24px;&quot;&gt;阶段一：构建阶段&lt;/span&gt;&lt;/div&gt;&lt;div style=&quot;text-align: left;&quot;&gt;&lt;span style=&quot;font-size: 24px;&quot;&gt;&amp;lt;script src=&quot;main.js&quot; type=&quot;module&quot;&amp;gt;&lt;/span&gt;&lt;/div&gt;" style="text;strokeColor=none;align=center;fillColor=none;html=1;verticalAlign=middle;whiteSpace=wrap;rounded=0;fontSize=14;fontColor=#FF3333;labelBackgroundColor=#FFFF00;" parent="1" vertex="1">
                    <mxGeometry x="60" y="370" width="410" height="230" as="geometry"/>
                </mxCell>
                <mxCell id="11" style="edgeStyle=none;html=1;entryX=0;entryY=0.5;entryDx=0;entryDy=0;fontColor=#FF0000;" parent="1" source="5" target="10" edge="1">
                    <mxGeometry relative="1" as="geometry"/>
                </mxCell>
                <mxCell id="5" value="main.js" style="shape=note;whiteSpace=wrap;html=1;backgroundOutline=1;darkOpacity=0.05;fillColor=#f0a30a;fontColor=#000000;strokeColor=#BD7000;" parent="1" vertex="1">
                    <mxGeometry x="210" y="600" width="70" height="80" as="geometry"/>
                </mxCell>
                <mxCell id="7" value="" style="endArrow=classic;html=1;" parent="1" edge="1">
                    <mxGeometry width="50" height="50" relative="1" as="geometry">
                        <mxPoint x="234.41" y="520" as="sourcePoint"/>
                        <mxPoint x="234.41" y="600" as="targetPoint"/>
                    </mxGeometry>
                </mxCell>
                <mxCell id="9" value="&lt;font style=&quot;font-size: 14px;&quot;&gt;fetch&lt;/font&gt;" style="text;strokeColor=none;align=center;fillColor=none;html=1;verticalAlign=middle;whiteSpace=wrap;rounded=0;fontColor=#FF0000;" parent="1" vertex="1">
                    <mxGeometry x="260" y="540" width="60" height="30" as="geometry"/>
                </mxCell>
                <mxCell id="22" style="edgeStyle=orthogonalEdgeStyle;html=1;exitX=0.5;exitY=1;exitDx=0;exitDy=0;entryX=0;entryY=0.5;entryDx=0;entryDy=0;fontSize=14;fontColor=#FF0000;" parent="1" source="10" edge="1">
                    <mxGeometry relative="1" as="geometry">
                        <mxPoint x="600" y="780" as="targetPoint"/>
                        <Array as="points">
                            <mxPoint x="520" y="780"/>
                        </Array>
                    </mxGeometry>
                </mxCell>
                <mxCell id="23" style="edgeStyle=orthogonalEdgeStyle;html=1;entryX=0;entryY=0.5;entryDx=0;entryDy=0;fontSize=14;fontColor=#FF0000;entryPerimeter=0;" parent="1" source="10" target="26" edge="1">
                    <mxGeometry relative="1" as="geometry">
                        <mxPoint x="600" y="910" as="targetPoint"/>
                        <Array as="points">
                            <mxPoint x="520" y="940"/>
                        </Array>
                    </mxGeometry>
                </mxCell>
                <mxCell id="10" value="Module Record&lt;br&gt;.bar.js&lt;br&gt;.foo.js" style="rounded=0;whiteSpace=wrap;html=1;fontColor=#ffffff;fillColor=#1ba1e2;strokeColor=#006EAF;" parent="1" vertex="1">
                    <mxGeometry x="440" y="600" width="160" height="80" as="geometry"/>
                </mxCell>
                <mxCell id="13" value="&lt;font style=&quot;font-size: 14px;&quot;&gt;parse&lt;/font&gt;" style="text;strokeColor=none;align=center;fillColor=none;html=1;verticalAlign=middle;whiteSpace=wrap;rounded=0;fontColor=#FF0000;" parent="1" vertex="1">
                    <mxGeometry x="310" y="600" width="60" height="30" as="geometry"/>
                </mxCell>
                <mxCell id="14" value="&lt;div style=&quot;text-align: left;&quot;&gt;&lt;span style=&quot;font-size: 14px; background-color: initial;&quot;&gt;静态分析：不会运行里面的代码&lt;/span&gt;&lt;/div&gt;&lt;div style=&quot;text-align: left;&quot;&gt;&lt;span style=&quot;font-size: 14px; background-color: rgb(255, 255, 0);&quot;&gt;这个可以执行&lt;/span&gt;&lt;/div&gt;&lt;div style=&quot;text-align: left;&quot;&gt;&lt;span style=&quot;font-size: 14px;&quot;&gt;import bar from './bar.js'&lt;/span&gt;&lt;span style=&quot;font-size: 14px; background-color: initial;&quot;&gt;&lt;br&gt;&lt;/span&gt;&lt;/div&gt;&lt;div style=&quot;text-align: left;&quot;&gt;&lt;span style=&quot;font-size: 14px;&quot;&gt;import foo from './foo.js'&lt;/span&gt;&lt;span style=&quot;font-size: 14px;&quot;&gt;&lt;br&gt;&lt;/span&gt;&lt;/div&gt;&lt;div style=&quot;text-align: left;&quot;&gt;&lt;span style=&quot;font-size: 14px; background-color: rgb(255, 255, 0);&quot;&gt;以下代码不会执行&lt;/span&gt;&lt;/div&gt;&lt;span style=&quot;font-size: 14px;&quot;&gt;&lt;div style=&quot;text-align: left;&quot;&gt;&lt;span style=&quot;background-color: initial;&quot;&gt;let isFlag = false&lt;/span&gt;&lt;/div&gt;&lt;div style=&quot;text-align: left;&quot;&gt;&lt;span style=&quot;background-color: initial;&quot;&gt;isFlag = true&lt;/span&gt;&lt;/div&gt;&lt;div style=&quot;text-align: left;&quot;&gt;&lt;span style=&quot;background-color: initial;&quot;&gt;if（isFlag）{&lt;/span&gt;&lt;/div&gt;&lt;div style=&quot;text-align: left;&quot;&gt;&lt;span style=&quot;background-color: initial;&quot;&gt;&amp;nbsp;import bar from './bar.js'&lt;/span&gt;&lt;/div&gt;&lt;div style=&quot;text-align: left;&quot;&gt;&lt;span style=&quot;background-color: initial;&quot;&gt;}&lt;/span&gt;&lt;/div&gt;&lt;/span&gt;" style="text;strokeColor=none;align=center;fillColor=none;html=1;verticalAlign=middle;whiteSpace=wrap;rounded=0;fontColor=#FF0000;" parent="1" vertex="1">
                    <mxGeometry x="200" y="720" width="200" height="250" as="geometry"/>
                </mxCell>
                <mxCell id="32" style="edgeStyle=orthogonalEdgeStyle;html=1;exitX=0;exitY=0;exitDx=70;exitDy=55;exitPerimeter=0;entryX=0;entryY=0.75;entryDx=0;entryDy=0;fontSize=14;fontColor=#FF0000;" parent="1" source="25" target="27" edge="1">
                    <mxGeometry relative="1" as="geometry"/>
                </mxCell>
                <mxCell id="25" value="bar.js" style="shape=note;whiteSpace=wrap;html=1;backgroundOutline=1;darkOpacity=0.05;fillColor=#f0a30a;fontColor=#000000;strokeColor=#BD7000;" parent="1" vertex="1">
                    <mxGeometry x="600" y="760" width="70" height="80" as="geometry"/>
                </mxCell>
                <mxCell id="31" style="edgeStyle=orthogonalEdgeStyle;html=1;entryX=0;entryY=0.5;entryDx=0;entryDy=0;fontSize=14;fontColor=#FF0000;" parent="1" source="26" target="28" edge="1">
                    <mxGeometry relative="1" as="geometry"/>
                </mxCell>
                <mxCell id="26" value="foo.js" style="shape=note;whiteSpace=wrap;html=1;backgroundOutline=1;darkOpacity=0.05;fillColor=#f0a30a;fontColor=#000000;strokeColor=#BD7000;" parent="1" vertex="1">
                    <mxGeometry x="600" y="900" width="70" height="80" as="geometry"/>
                </mxCell>
                <mxCell id="27" value="Module Record" style="rounded=0;whiteSpace=wrap;html=1;fontColor=#ffffff;fillColor=#1ba1e2;strokeColor=#006EAF;" parent="1" vertex="1">
                    <mxGeometry x="740" y="760" width="160" height="80" as="geometry"/>
                </mxCell>
                <mxCell id="28" value="Module Record" style="rounded=0;whiteSpace=wrap;html=1;fontColor=#ffffff;fillColor=#1ba1e2;strokeColor=#006EAF;" parent="1" vertex="1">
                    <mxGeometry x="740" y="900" width="160" height="80" as="geometry"/>
                </mxCell>
                <mxCell id="33" value="&lt;font style=&quot;font-size: 14px;&quot;&gt;fetch&lt;/font&gt;" style="text;strokeColor=none;align=center;fillColor=none;html=1;verticalAlign=middle;whiteSpace=wrap;rounded=0;fontColor=#FF0000;" parent="1" vertex="1">
                    <mxGeometry x="460" y="830" width="60" height="30" as="geometry"/>
                </mxCell>
                <mxCell id="34" value="&lt;font style=&quot;font-size: 14px;&quot;&gt;parse&lt;/font&gt;" style="text;strokeColor=none;align=center;fillColor=none;html=1;verticalAlign=middle;whiteSpace=wrap;rounded=0;fontColor=#FF0000;" parent="1" vertex="1">
                    <mxGeometry x="670" y="860" width="60" height="30" as="geometry"/>
                </mxCell>
                <mxCell id="35" value="&lt;div style=&quot;text-align: left;&quot;&gt;&lt;span style=&quot;font-size: 24px;&quot;&gt;阶段二和三：实例化阶段（除了import其它任何值不处理但是回收集默认为undefined） - 只有到代码动态运行阶段（求值赋值才会有值）&lt;/span&gt;&lt;/div&gt;&lt;div style=&quot;text-align: left;&quot;&gt;&lt;br&gt;&lt;/div&gt;" style="text;strokeColor=none;align=center;fillColor=none;html=1;verticalAlign=middle;whiteSpace=wrap;rounded=0;fontSize=14;fontColor=#FF3333;labelBackgroundColor=#FFFF00;" parent="1" vertex="1">
                    <mxGeometry x="95" y="1100" width="410" height="130" as="geometry"/>
                </mxCell>
                <mxCell id="42" style="edgeStyle=orthogonalEdgeStyle;html=1;exitX=1;exitY=0.5;exitDx=0;exitDy=0;entryX=0;entryY=0.5;entryDx=0;entryDy=0;fontSize=14;fontColor=#FF0000;" parent="1" source="36" target="40" edge="1">
                    <mxGeometry relative="1" as="geometry"/>
                </mxCell>
                <mxCell id="36" value="Module Record&lt;br&gt;导出count属性" style="rounded=0;whiteSpace=wrap;html=1;fontColor=#ffffff;fillColor=#1ba1e2;strokeColor=#006EAF;" parent="1" vertex="1">
                    <mxGeometry x="100" y="1310" width="160" height="80" as="geometry"/>
                </mxCell>
                <mxCell id="37" value="&lt;font style=&quot;font-size: 14px;&quot;&gt;counter.js&lt;/font&gt;" style="text;strokeColor=none;align=center;fillColor=none;html=1;verticalAlign=middle;whiteSpace=wrap;rounded=0;fontColor=#FF0000;" parent="1" vertex="1">
                    <mxGeometry x="150" y="1260" width="60" height="30" as="geometry"/>
                </mxCell>
                <mxCell id="43" style="edgeStyle=orthogonalEdgeStyle;html=1;exitX=1;exitY=0.5;exitDx=0;exitDy=0;entryX=0;entryY=0.5;entryDx=0;entryDy=0;fontSize=14;fontColor=#FF0000;" parent="1" source="38" target="41" edge="1">
                    <mxGeometry relative="1" as="geometry"/>
                </mxCell>
                <mxCell id="38" value="Module Record&lt;br&gt;导出render属性" style="rounded=0;whiteSpace=wrap;html=1;fontColor=#ffffff;fillColor=#1ba1e2;strokeColor=#006EAF;" parent="1" vertex="1">
                    <mxGeometry x="100" y="1500" width="160" height="80" as="geometry"/>
                </mxCell>
                <mxCell id="39" value="&lt;font style=&quot;font-size: 14px;&quot;&gt;display.js&lt;/font&gt;" style="text;strokeColor=none;align=center;fillColor=none;html=1;verticalAlign=middle;whiteSpace=wrap;rounded=0;fontColor=#FF0000;" parent="1" vertex="1">
                    <mxGeometry x="150" y="1450" width="60" height="30" as="geometry"/>
                </mxCell>
                <mxCell id="48" style="edgeStyle=orthogonalEdgeStyle;html=1;exitX=1;exitY=0.5;exitDx=0;exitDy=0;entryX=0;entryY=0.5;entryDx=0;entryDy=0;fontSize=14;fontColor=#FF0000;" parent="1" source="40" target="46" edge="1">
                    <mxGeometry relative="1" as="geometry"/>
                </mxCell>
                <mxCell id="40" value="模块环境记录&lt;br&gt;绑定count" style="rounded=0;whiteSpace=wrap;html=1;fontColor=#ffffff;fillColor=#1ba1e2;strokeColor=#006EAF;" parent="1" vertex="1">
                    <mxGeometry x="360" y="1300" width="160" height="80" as="geometry"/>
                </mxCell>
                <mxCell id="49" style="edgeStyle=orthogonalEdgeStyle;html=1;exitX=1;exitY=0.5;exitDx=0;exitDy=0;entryX=0;entryY=0.5;entryDx=0;entryDy=0;fontSize=14;fontColor=#FF0000;" parent="1" source="41" edge="1">
                    <mxGeometry relative="1" as="geometry">
                        <mxPoint x="640.0000000000001" y="1540" as="targetPoint"/>
                    </mxGeometry>
                </mxCell>
                <mxCell id="41" value="模块环境记录&lt;br&gt;绑定render" style="rounded=0;whiteSpace=wrap;html=1;fontColor=#ffffff;fillColor=#1ba1e2;strokeColor=#006EAF;" parent="1" vertex="1">
                    <mxGeometry x="360" y="1500" width="160" height="80" as="geometry"/>
                </mxCell>
                <mxCell id="44" value="&lt;font style=&quot;font-size: 14px;&quot;&gt;实例化后生成&lt;/font&gt;" style="text;strokeColor=none;align=center;fillColor=none;html=1;verticalAlign=middle;whiteSpace=wrap;rounded=0;fontColor=#FF0000;" parent="1" vertex="1">
                    <mxGeometry x="280" y="1270" width="60" height="30" as="geometry"/>
                </mxCell>
                <mxCell id="45" value="&lt;font style=&quot;font-size: 14px;&quot;&gt;实例化后生成&lt;/font&gt;" style="text;strokeColor=none;align=center;fillColor=none;html=1;verticalAlign=middle;whiteSpace=wrap;rounded=0;fontColor=#FF0000;" parent="1" vertex="1">
                    <mxGeometry x="280" y="1470" width="60" height="30" as="geometry"/>
                </mxCell>
                <mxCell id="57" style="edgeStyle=orthogonalEdgeStyle;html=1;exitX=1;exitY=0.5;exitDx=0;exitDy=0;fontSize=14;fontColor=#000000;" parent="1" source="46" target="56" edge="1">
                    <mxGeometry relative="1" as="geometry"/>
                </mxCell>
                <mxCell id="46" value="&lt;font style=&quot;&quot; color=&quot;#000000&quot;&gt;实例化阶段为undefined，求值阶段为5&lt;/font&gt;" style="rounded=1;whiteSpace=wrap;html=1;labelBackgroundColor=#60a917;fontSize=14;fontColor=#ffffff;fillColor=#60a917;strokeColor=#2D7600;" parent="1" vertex="1">
                    <mxGeometry x="640" y="1270" width="79" height="140" as="geometry"/>
                </mxCell>
                <mxCell id="58" style="edgeStyle=orthogonalEdgeStyle;html=1;exitX=1;exitY=0.5;exitDx=0;exitDy=0;entryX=0.5;entryY=1;entryDx=0;entryDy=0;fontSize=14;fontColor=#000000;" parent="1" source="50" target="56" edge="1">
                    <mxGeometry relative="1" as="geometry"/>
                </mxCell>
                <mxCell id="50" value="&lt;span style=&quot;color: rgb(0, 0, 0);&quot;&gt;实例化阶段undefined，求值阶段为function&lt;/span&gt;" style="rounded=1;whiteSpace=wrap;html=1;labelBackgroundColor=#60a917;fontSize=14;fontColor=#ffffff;fillColor=#60a917;strokeColor=#2D7600;" parent="1" vertex="1">
                    <mxGeometry x="640" y="1470" width="79" height="140" as="geometry"/>
                </mxCell>
                <mxCell id="51" value="&lt;font style=&quot;font-size: 14px;&quot;&gt;内存空间&lt;/font&gt;" style="text;strokeColor=none;align=center;fillColor=none;html=1;verticalAlign=middle;whiteSpace=wrap;rounded=0;fontColor=#FF0000;" parent="1" vertex="1">
                    <mxGeometry x="649.5" y="1430" width="60" height="30" as="geometry"/>
                </mxCell>
                <mxCell id="52" value="&lt;font style=&quot;font-size: 14px;&quot;&gt;内存空间&lt;/font&gt;" style="text;strokeColor=none;align=center;fillColor=none;html=1;verticalAlign=middle;whiteSpace=wrap;rounded=0;fontColor=#FF0000;" parent="1" vertex="1">
                    <mxGeometry x="649.5" y="1630" width="60" height="30" as="geometry"/>
                </mxCell>
                <mxCell id="53" value="Module Record&lt;br&gt;import导入count和render" style="rounded=0;whiteSpace=wrap;html=1;fontColor=#ffffff;fillColor=#1ba1e2;strokeColor=#006EAF;" parent="1" vertex="1">
                    <mxGeometry x="1060" y="1380" width="160" height="80" as="geometry"/>
                </mxCell>
                <mxCell id="55" value="&lt;font style=&quot;font-size: 14px;&quot;&gt;main.js&lt;/font&gt;" style="text;strokeColor=none;align=center;fillColor=none;html=1;verticalAlign=middle;whiteSpace=wrap;rounded=0;fontColor=#FF0000;" parent="1" vertex="1">
                    <mxGeometry x="1110" y="1325" width="60" height="30" as="geometry"/>
                </mxCell>
                <mxCell id="59" style="edgeStyle=orthogonalEdgeStyle;html=1;exitX=1;exitY=0.5;exitDx=0;exitDy=0;entryX=0;entryY=0.5;entryDx=0;entryDy=0;fontSize=14;fontColor=#000000;" parent="1" source="56" target="53" edge="1">
                    <mxGeometry relative="1" as="geometry"/>
                </mxCell>
                <mxCell id="56" value="模块环境记录&lt;br&gt;绑定count、render" style="rounded=0;whiteSpace=wrap;html=1;fontColor=#ffffff;fillColor=#1ba1e2;strokeColor=#006EAF;" parent="1" vertex="1">
                    <mxGeometry x="810" y="1380" width="160" height="80" as="geometry"/>
                </mxCell>
            </root>
        </mxGraphModel>
    </diagram>
</mxfile>